<svg version="1.1" id="Layer_1" xmlns="http://www.w3.org/2000/svg" x="0" y="0" width="200" viewBox="0 0 374 57" style="enable-background:new 0 0 374 57" xml:space="preserve"><style>.st0{fill:#fff}</style><path class="st0" d="M366.6 16.6h1.2v3.1h.4v-3.1h1.2v-.4h-2.7l-.1.4zM373.4 16.2l-1.4 2.1-1.4-2.1h-.4v3.5h.4v-2.8L372 19l1.4-2.1v2.8h.4v-3.5h-.4zM223.4 15.4h-4.8v41.5H246v-4.7h-22.6V15.4zM253.1 57h29v-4.7h-24.3V38.5H280v-4.7h-22.2V20.1h24.3v-4.7H253V57zM335.3 57h4.7V38.6h22.4v-4.7H340V20.1h24.3v-4.7h-29V57zM87.1 19.8h26.1L87.1 55.3V57h33.6v-4.4h-26l25.9-35.2v-2H87.1v4.4zM305.4 15.4 288.6 57h5l4.1-9.8h21.5l4.2 9.8h5l-16.9-41.6h-6.1zm-5.9 27 8.4-20.8h1.2l8.3 20.8h-17.9zM193.4 15.3c-6.5 0-11.6 2.6-14.5 7.4v-6.5H174V57h4.9V37.1c0-9.5 6.3-17.2 14-17.2 9 0 10.9 6.7 10.9 12.4V57h4.8V31.6c0-9.9-6-16.3-15.2-16.3zM145.4 15c-11.5 0-20.5 9.3-20.5 21.3 0 12.3 8.9 21.2 21.3 21.2 3.2.1 6.4-.5 9.3-1.8 2.9-1.3 5.5-3.3 7.6-5.8l.3-.4-3.4-3-.4.4c-1.6 2-3.7 3.6-6 4.6-2.3 1-4.9 1.5-7.4 1.4-9.4 0-15.7-6-16.2-15.3h35.5v-.5c.1-3-.3-6-1.4-8.8s-2.6-5.4-4.7-7.6c-1.8-1.8-4-3.3-6.4-4.2-2.4-1.1-5-1.6-7.6-1.5zm-15.3 18.4c1.2-8.5 7.1-14 15.3-14 10 0 14.2 7.1 15 14h-30.3zM80.3 16.2c-6.2.4-12.2 1.5-18.1 3.3-1.9.6-3.7 1.3-5.5 2.1l-.4.1c.2.6.4 1.1.6 1.7l.4-.2c1.8-.8 3.6-1.5 5.4-2 5.5-1.7 11.2-2.7 16.9-3.1-.4 5.7-1.5 11.4-3.2 16.9-2.6 8.1-6.3 13.9-11.1 17.2-3.5 2.4-7.8 3.7-12 3.6-2.7 0-5.3-.4-7.9-1-.7.4-1.4.8-2.1 1.3h.1c3.2.9 6.5 1.4 9.9 1.5 4.7.1 9.2-1.3 13.1-3.9 5.1-3.6 9.1-9.7 11.8-18.2 1.8-5.9 2.9-12 3.3-18.1l.1-1.2h-1.3z"/><path class="st0" d="M53.2 54c3.9.1 7.8-1 11.1-3.3 4.5-3.1 8-8.6 10.4-16.4 1.4-4.5 2.3-9.2 2.8-13.9l.1-.5-.5.1c-4.7.5-9.4 1.5-13.9 2.8-1.9.6-3.7 1.3-5.5 2.1l-.3.1.1.4c.1.3.1.6.2.9l.1.5.5-.2c1.8-.8 3.6-1.5 5.5-2.1 3.9-1.2 7.9-2 11.9-2.6-.5 4-1.4 8-2.6 11.9-2.3 7.3-5.6 12.5-9.8 15.4-3 2-6.5 3-10.1 2.9-1.3 0-2.7-.1-4-.3l-1.8 1.5h.3c1.8.5 3.7.7 5.5.7z"/><path class="st0" d="M53.2 50.5c3.2.1 6.4-.8 9.1-2.6 3.9-2.7 6.9-7.6 9.1-14.5.9-2.9 1.6-5.8 2.1-8.7l.1-.6-.6.1c-2.9.5-5.9 1.2-8.7 2.1-2 .6-4 1.4-5.8 2.3l-.3.1v.3c0 .3.1.6.1.9l.1.6.5-.3c1.9-.9 3.9-1.7 5.9-2.3 2.2-.7 4.4-1.2 6.6-1.7-.4 2.2-1 4.5-1.7 6.6-2.1 6.6-4.9 11.2-8.4 13.6-2.4 1.6-5.2 2.4-8.1 2.3h-.7c-.5.6-1 1.1-1.6 1.6h.5c.6.2 1.2.2 1.8.2z"/><path class="st0" d="M60.3 45c3.2-2.2 5.8-6.5 7.8-12.7.3-1 .6-2 .9-3.1l.2-.7-.7.2c-1.1.3-2.2.6-3.1.9-2.3.7-4.5 1.6-6.6 2.7l-.2.1v2.1l.7-.4c2.1-1.2 4.4-2.1 6.7-2.8.3-.1.6-.2.8-.3l-.3.9c-1.8 5.8-4.2 9.8-7.1 11.8-1.2.8-2.7 1.4-4.2 1.5-.4.6-.8 1.3-1.2 1.9h.7c1.9-.2 3.9-.9 5.6-2.1z"/><path class="st0" d="M58.3 42.2c2.4-2 4.2-4.6 5.2-7.5l.4-1-1 .4c-1.6.6-3.1 1.5-4.5 2.4l-.1.1-.1.5c0 .3-.1.6-.2.9l-.3 1.2 1-.8c.5-.4 1-.7 1.5-1-.7 1.3-1.7 2.5-2.9 3.4l-.1.1c-.3.8-.6 1.6-1 2.4l1-.4c.3-.2.7-.5 1.1-.7zM28.5 55.8c-4.3.1-8.5-1.2-12.1-3.6-4.8-3.3-8.5-9.1-11-17.2-1.7-5.5-2.8-11.2-3.2-17 5.7.4 11.4 1.5 16.9 3.2 1.8.6 3.6 1.3 5.4 2l.4.2c.2-.5.4-1.1.6-1.7l-.4-.1c-1.8-.8-3.7-1.5-5.6-2.1-5.9-1.8-12-2.9-18.1-3.3l-1.2-.1.1 1.2c.4 6.1 1.5 12.2 3.3 18.1 2.7 8.5 6.6 14.5 11.8 18.1 3.8 2.6 8.4 4 13.1 3.9 3.3 0 6.7-.5 9.9-1.5h.1c-.7-.4-1.4-.8-2.1-1.3-2.6.8-5.2 1.2-7.9 1.2z"/><path class="st0" d="M18.5 49.3c-4.2-2.9-7.4-8.1-9.8-15.4C7.5 30 6.7 26 6.1 22c4 .5 8 1.4 11.9 2.6 1.9.6 3.7 1.3 5.5 2.1l.5.2.1-.5c.1-.3.1-.6.2-.9l.1-.4-.2-.1c-1.8-.8-3.6-1.5-5.5-2.1-4.5-1.4-9.2-2.3-13.9-2.8l-.6-.1.1.5c.5 4.7 1.5 9.4 2.8 13.9 2.4 7.7 5.9 13.2 10.4 16.3 3.3 2.2 7.1 3.4 11.1 3.3 1.9 0 3.8-.2 5.6-.6h.3l-1.8-1.5c-1.3.2-2.7.3-4 .3-3.7.2-7.3-.9-10.2-2.9z"/><path class="st0" d="M20.5 46.5c-3.5-2.5-6.4-7-8.4-13.6-.7-2.2-1.2-4.4-1.7-6.6 2.2.4 4.5 1 6.6 1.7 2 .6 4 1.4 5.9 2.3l.5.3.1-.6c0-.3.1-.6.1-.9v-.3l-.3-.1c-1.9-.9-3.9-1.7-5.9-2.3-2.9-.9-5.8-1.6-8.7-2.1l-.5-.3.1.6c.5 3 1.2 5.9 2.1 8.7 2.2 7 5.3 11.8 9.1 14.5 2.7 1.8 5.9 2.7 9.1 2.6.6 0 1.2 0 1.9-.1h.5c-.6-.5-1.1-1.1-1.6-1.6h-.7c-3 .2-5.8-.6-8.2-2.2z"/><path class="st0" d="m15.4 31.8-.3-.9.9.3c2.3.7 4.6 1.6 6.7 2.8l.7.4v-2l-.2-.1c-2.1-1.1-4.3-2-6.6-2.7-1-.3-2-.6-3.1-.9l-.7-.2.2.7c.3 1.1.6 2.1.9 3.1 2 6.2 4.6 10.5 7.8 12.7 1.7 1.2 3.7 1.8 5.8 1.9h.7c-.4-.6-.9-1.2-1.2-1.9-1.5-.2-2.9-.7-4.2-1.5-3.2-1.9-5.6-5.9-7.4-11.7z"/><path class="st0" d="M24.5 40.7c-1.2-.9-2.2-2-2.9-3.3.5.3 1 .7 1.5 1.1l1 .8-.3-1.3c-.1-.3-.1-.6-.2-.9 0-.1-.1-.5-.1-.5l-.1-.1c-1.4-1-3-1.8-4.6-2.4l-1-.4.4 1c1 2.9 2.8 5.5 5.2 7.5.4.3.8.5 1.2.6l1 .4c-.4-.8-.7-1.5-1-2.3v-.1l-.1-.1zM39.8 55.2c-8.5-4.7-13.4-10.8-14.7-18-1.1-6.2.4-13.3 4.5-21.2C32.5 10.6 36 5.5 40.1.9l.8-.9.8.9c4.1 4.6 7.6 9.7 10.5 15.1 4.1 7.9 5.6 15 4.5 21.1-1.3 7.3-6.2 13.3-14.7 18l-1.1.6-1.1-.5zm1.1-52.6c-3.8 4.3-7 9.1-9.7 14.2-3.9 7.5-5.4 14.2-4.4 20 1.2 6.7 5.8 12.4 13.8 16.8l.3.1.3-.2c8-4.4 12.6-10.1 13.8-16.8 1-5.8-.4-12.5-4.4-20-2.7-5-5.9-9.7-9.7-14.1z"/><path class="st0" d="M40.7 51.7c-7-4.1-11.1-9.2-12.1-15.1-1-5.4.5-11.8 4.2-18.9 2.2-4.2 4.8-8.1 7.8-11.8l.3-.4.3.4c3 3.7 5.6 7.6 7.8 11.8 3.7 7.2 5.1 13.5 4.2 18.9-1 6-5.1 11-12.1 15.1l-.2.1-.2-.1zm.2-43.5c-2.5 3.2-4.7 6.7-6.6 10.2-3.5 6.8-4.9 12.8-4 17.8.9 5.2 4.5 9.8 10.6 13.5 6.1-3.7 9.7-8.3 10.6-13.5.9-5-.5-11-4-17.8-1.9-3.6-4.1-7-6.6-10.2z"/><path class="st0" d="M40.7 47.5c-5-3.3-7.9-7.2-8.7-11.6-.8-4.6.5-10.2 3.8-16.7 1.4-2.6 3-5.2 4.7-7.6l.4-.5.4.5c1.7 2.4 3.3 5 4.7 7.6 3.3 6.5 4.7 12.1 3.8 16.7-.8 4.4-3.7 8.3-8.7 11.6l-.1.2-.3-.2zm.2-33.3c-1.3 1.9-2.5 3.9-3.5 5.9-3.2 6.1-4.4 11.4-3.7 15.6.6 3.7 3.1 7 7.2 10 4.1-2.9 6.5-6.3 7.2-10 .7-4.2-.5-9.5-3.7-15.6-1.1-2.1-2.2-4-3.5-5.9z"/><path class="st0" d="M40.6 43.2c-2.6-1.9-4.5-4.7-5.2-7.8-.7-3.9.5-8.7 3.5-14.5.5-.9 1-1.9 1.6-2.8l.4-.6.4.6c.6 1 1.1 1.9 1.6 2.8 3 5.8 4.2 10.6 3.5 14.5-.7 3.2-2.6 6-5.2 7.8l-.3.2-.3-.2zm.3-22.3c-.1.3-.3.5-.4.8-2.8 5.4-3.9 9.9-3.3 13.4.5 2.4 1.8 4.5 3.8 6.1 1.9-1.5 3.2-3.7 3.8-6.1.6-3.5-.5-8-3.3-13.4l-.6-.8z"/><path class="st0" d="M40.6 38.2c-.8-1-1.4-2.2-1.7-3.5-.3-3.1.3-6.2 1.6-9l.4-1 .4 1c1.4 2.8 1.9 5.9 1.6 9-.3 1.3-.8 2.5-1.7 3.5l-.3.4-.3-.4zm.3-8.2c-.4 1.4-.5 2.9-.3 4.4.1.3.2.7.3 1 .1-.3.2-.7.3-1 .2-1.4.1-2.9-.3-4.4z"/></svg>